<?xml version="1.0" encoding="UTF-8"?>
<svg id="Layer_1" data-name="Layer 1" xmlns="http://www.w3.org/2000/svg" viewBox="0 0 751 219">
  <defs>
    <style>
      .cls-1 {
        fill: #0f0f0f;
      }

      .cls-2 {
        fill: #c12cff;
      }
    </style>
  </defs>
  <path class="cls-1" d="M57.15,132.21v-31.81h77.99v-27.16H57.15v-26.47h82.21v-27.16H23.23v139.76h116.73l3.91-27.16H57.15Z"/>
  <path class="cls-1" d="M269.89,130.53V11.63h-32.6v53c-2.95-3.79-11.09-10.57-31.09-10.57-25.37,0-52.8,20.33-52.8,54.92,0,32.01,21.27,53.17,49.76,53.17,21.27,0,28.5-6.75,34.13-14.63.18,3.98.37,8.81.79,11.85h32.01c-.2-9.55-.2-19.3-.2-28.84ZM212.68,136.81c-16.62,0-25.95-12.37-25.95-28.55,0-15.12,8.48-29.04,26.07-29.04s25.27,11.28,25.27,28.9-8.59,28.69-25.39,28.69Z"/>
  <path class="cls-1" d="M288.55,56.84v102.53h32.43V56.84h-32.43ZM288.55,11.63v25.9h32.43V11.63h-32.43Z"/>
  <path class="cls-1" d="M411.96,80.38v-23.54h-23.73v-30.22h-32.6v30.22h-18.39v23.54h18.39v48.86c0,19.99,7.32,30.95,32.57,30.95,7.55,0,15.02-.7,20.56-2.29v-22.23c-2.81.62-5.97.64-8.77.64-9.94,0-11.76-4-11.76-12.73v-43.2h23.73Z"/>
  <path class="cls-1" d="M558.39,76.33c0-5.52-.4-16.87-.95-20.49h-31.67c.19,9.28.19,18.58.19,27.86v74.67h32.43v-37.46c0-29.24,16.33-38.55,39.52-38.18v-29.5c-21.27-.52-33.8,9.6-39.52,23.1Z"/>
  <path class="cls-1" d="M697.72,55.84c-13.84,39.21-21.86,66.35-24.6,76.6h-.55c-2-7.38-9.6-32.13-27.25-76.6h-35.54l45.63,106.44c-5.37,10.83-8.57,15.26-22.57,15.26-3.23,0-5.51-.05-10.28-.47v26.13c3.72.77,11.3,1.17,15.87,1.17,35.02,0,40.42-14.94,58.1-60.63l34.23-87.9h-33.04Z"/>
  <path class="cls-2" d="M509.98,103.39l-23.55,10.14-8.6,3.7-6.62,14.94-7.93,17.92c-6.3,7.07-8.63-1.96-10.6-7-1.74-4.48-3.41-9.02-5.04-13.6-3.82-10.71-7.38-21.63-10.94-32.5-2.68-8.19-5.35-16.34-8.12-24.35.75-2.37,2.99-4.54,5.59-3.79l19.25,6.86,29.5,10.51,28.57,10.18c2.05,2.41.98,5.45-1.51,6.99Z"/>
</svg>